<svg xmlns="http://www.w3.org/2000/svg" width="109" height="109"><path fill="#eb161e" d="M0 0h109v109H0z"/><path d="M90.828 60.557h-.727a.161.161 0 01-.182-.182v-.121a.161.161 0 01.182-.182h1.938a.161.161 0 01.182.182v.121a.161.161 0 01-.182.182h-.727v2.12a.161.161 0 01-.182.182h-.182a.161.161 0 01-.182-.182v-2.12zm1.757 2.181a.161.161 0 00.182.182h.182a.161.161 0 00.182-.182l.121-1.393v-.424s.061.242.121.424l.363.909c.061.061.061.121.182.121h.182c.121 0 .121-.061.182-.121l.424-.909c.061-.182.121-.424.121-.424v.424l.121 1.393a.161.161 0 00.182.182h.182a.161.161 0 00.182-.182l-.182-2.423a.161.161 0 00-.182-.182h-.245c-.121 0-.182.061-.182.121l-.485 1.212a6.648 6.648 0 00-.121.424s-.061-.242-.121-.424l-.485-1.212c-.061-.061-.061-.121-.182-.121h-.242a.161.161 0 00-.182.182zm-72.51 9.692a.631.631 0 00.121.969 7.572 7.572 0 004.907 1.7c2.847 0 4.907-1.7 4.907-4.119 0-4.846-7.693-3.756-7.693-7.087 0-1.575 1.333-2.241 2.847-2.241a5.475 5.475 0 013.089.909.632.632 0 00.969-.182l.182-.3a.641.641 0 00-.182-.969 6.749 6.749 0 00-4-1.151c-2.665 0-4.907 1.393-4.907 4.059 0 4.785 7.754 3.816 7.754 7.087 0 1.514-1.333 2.362-2.908 2.362a6.156 6.156 0 01-3.816-1.333c-.424-.242-.727-.242-.969.121l-.3.182m19.081.848c-2.968 0-4.543-2.908-4.543-5.815 0-4.119 2.241-5.876 4.664-5.876 2.665 0 4.6 2.3 4.6 5.815-.061 3.756-2.181 5.876-4.725 5.876m-6.482 6.482c0 .485.242.727.666.727h.548a.643.643 0 00.727-.727v-6.36a6.492 6.492 0 00-.121-1.272h.061a5.273 5.273 0 004.785 2.968c3.756 0 6.482-2.968 6.482-7.572 0-4.483-2.423-7.633-6.3-7.633a5.461 5.461 0 00-5.088 3.029h-.061a7.621 7.621 0 00.061-.969v-1.03a.606.606 0 00-.666-.666h-.48c-.485 0-.666.242-.666.727v18.778zm20.114-6.368c-2.181 0-3.211-1.393-3.211-2.786 0-3.271 4.6-3.332 6.845-3.332h.788v.666c0 2.6-1.636 5.452-4.422 5.452m3.635-7.572c-2.786 0-8.844.242-8.844 4.967 0 2.786 2.423 4.24 4.907 4.24a5.513 5.513 0 004.902-3.331h.061a8.52 8.52 0 00-.061 1.09v1.151a.642.642 0 00.727.727h.485c.485 0 .666-.242.666-.727v-8.541c0-3.635-1.938-5.573-5.391-5.573a8.533 8.533 0 00-4.6 1.272.641.641 0 00-.182.969l.182.3a.688.688 0 00.969.242 6.528 6.528 0 013.513-1.03c2.06 0 3.574.969 3.574 3.756v.485h-.909m12.539-5.936a7.6 7.6 0 000 15.2 8.014 8.014 0 005.149-1.817c.3-.3.424-.606.182-.969l-.182-.3c-.242-.424-.545-.485-.969-.182a6.064 6.064 0 01-4.053 1.518 5.849 5.849 0 01-.061-11.691 5.854 5.854 0 013.635 1.333c.424.242.727.242.969-.121l.182-.3a.627.627 0 00-.061-.969 7 7 0 00-4.785-1.7m8.721 6.123a4.96 4.96 0 014.967-4.543c2.181 0 4 1.514 4.119 4.543zm5.088-6.118c-3.937 0-7.148 2.847-7.148 7.633a7.318 7.318 0 007.572 7.572 8.179 8.179 0 004.846-1.636.641.641 0 00.182-.969l-.24-.368a.632.632 0 00-.969-.182 6.1 6.1 0 01-3.816 1.333c-2.968 0-5.512-2.12-5.634-5.815h10.419a.7.7 0 00.727-.727c.061-4.059-2.12-6.845-5.936-6.845m-25.629-9.814V36.024h3.089c4.059 0 6.784 2.423 6.784 7.027s-2.665 7.087-6.784 7.087h-3.089zm-3.7 2a1.07 1.07 0 001.151 1.212h5.755c6.36 0 10.48-3.816 10.48-10.3s-4.115-10.176-10.414-10.176h-5.755c-.787 0-1.151.424-1.151 1.212v18.051zM35.55 51.84l-3.392-6.179c-.424-.727-.666-1.09-.666-1.09v-.061a5.885 5.885 0 003.392-5.573 5.589 5.589 0 00-3.453-5.573 9.5 9.5 0 00-3.877-.545h-5.512c-.787 0-1.151.424-1.151 1.212v18.051a1.07 1.07 0 001.151 1.212h1.333c.787 0 1.151-.424 1.151-1.212v-6.421H28.1l3.574 6.784a1.388 1.388 0 001.393.848h1.575c1.029.001 1.393-.605.908-1.453zm-7.633-9.45h-3.326v-6.36h2.726a5.186 5.186 0 012.241.363 2.761 2.761 0 011.633 2.786 3.037 3.037 0 01-3.273 3.211zm10.292 9.689a1.07 1.07 0 001.151 1.212h9.692a1.671 1.671 0 001.636-1.212l.3-.787c.3-.787 0-1.211-.787-1.211h-8.357V44.57h5.088a1.671 1.671 0 001.636-1.212l.3-.787c.3-.787 0-1.212-.787-1.212h-6.237v-5.33h6.724a1.69 1.69 0 001.635-1.15l.3-.787c.3-.787 0-1.212-.787-1.212H39.36c-.787 0-1.151.424-1.151 1.212z" fill="#fff"/></svg>